<mxfile host="65bd71144e">
    <diagram name="Page-1" id="L4tg7DfOXTLpiXwqMl0W">
        <mxGraphModel dx="1277" dy="634" grid="1" gridSize="10" guides="1" tooltips="1" connect="1" arrows="1" fold="1" page="1" pageScale="1" pageWidth="1654" pageHeight="1169" math="0" shadow="0">
            <root>
                <mxCell id="0"/>
                <mxCell id="1" parent="0"/>
                <mxCell id="sIhScHPrBFRhKgeZefE7-4" style="edgeStyle=orthogonalEdgeStyle;rounded=0;orthogonalLoop=1;jettySize=auto;html=1;" parent="1" source="sIhScHPrBFRhKgeZefE7-2" target="sIhScHPrBFRhKgeZefE7-3" edge="1">
                    <mxGeometry relative="1" as="geometry"/>
                </mxCell>
                <mxCell id="sIhScHPrBFRhKgeZefE7-11" style="edgeStyle=orthogonalEdgeStyle;rounded=0;orthogonalLoop=1;jettySize=auto;html=1;" parent="1" target="sIhScHPrBFRhKgeZefE7-2" edge="1">
                    <mxGeometry relative="1" as="geometry">
                        <mxPoint x="370" y="242.5" as="sourcePoint"/>
                    </mxGeometry>
                </mxCell>
                <mxCell id="sIhScHPrBFRhKgeZefE7-12" value="i_phys_clk_600" style="edgeLabel;html=1;align=center;verticalAlign=middle;resizable=0;points=[];" parent="sIhScHPrBFRhKgeZefE7-11" vertex="1" connectable="0">
                    <mxGeometry x="-0.4272" y="-3" relative="1" as="geometry">
                        <mxPoint x="-6" y="-3" as="offset"/>
                    </mxGeometry>
                </mxCell>
                <mxCell id="sIhScHPrBFRhKgeZefE7-16" style="edgeStyle=orthogonalEdgeStyle;rounded=0;orthogonalLoop=1;jettySize=auto;html=1;entryX=-0.025;entryY=0.916;entryDx=0;entryDy=0;entryPerimeter=0;" parent="1" edge="1" target="sIhScHPrBFRhKgeZefE7-2">
                    <mxGeometry relative="1" as="geometry">
                        <mxPoint x="600" y="271.5" as="targetPoint"/>
                        <mxPoint x="490" y="310" as="sourcePoint"/>
                    </mxGeometry>
                </mxCell>
                <mxCell id="sIhScHPrBFRhKgeZefE7-18" value="1" style="edgeLabel;html=1;align=center;verticalAlign=middle;resizable=0;points=[];" parent="sIhScHPrBFRhKgeZefE7-16" vertex="1" connectable="0">
                    <mxGeometry x="-0.3315" relative="1" as="geometry">
                        <mxPoint x="6" as="offset"/>
                    </mxGeometry>
                </mxCell>
                <mxCell id="sIhScHPrBFRhKgeZefE7-2" value="ODDR" style="rounded=0;whiteSpace=wrap;html=1;fillColor=#f5f5f5;gradientColor=#b3b3b3;strokeColor=#666666;" parent="1" vertex="1">
                    <mxGeometry x="600" y="162.5" width="120" height="160" as="geometry"/>
                </mxCell>
                <mxCell id="sIhScHPrBFRhKgeZefE7-5" style="edgeStyle=orthogonalEdgeStyle;rounded=0;orthogonalLoop=1;jettySize=auto;html=1;exitX=0.5;exitY=0;exitDx=0;exitDy=0;" parent="1" source="sIhScHPrBFRhKgeZefE7-3" edge="1">
                    <mxGeometry relative="1" as="geometry">
                        <mxPoint x="1060" y="213" as="targetPoint"/>
                    </mxGeometry>
                </mxCell>
                <mxCell id="sIhScHPrBFRhKgeZefE7-7" value="o_clk_600_p" style="edgeLabel;html=1;align=center;verticalAlign=middle;resizable=0;points=[];" parent="sIhScHPrBFRhKgeZefE7-5" vertex="1" connectable="0">
                    <mxGeometry x="-0.0064" y="-3" relative="1" as="geometry">
                        <mxPoint x="-7" as="offset"/>
                    </mxGeometry>
                </mxCell>
                <mxCell id="sIhScHPrBFRhKgeZefE7-6" style="edgeStyle=orthogonalEdgeStyle;rounded=0;orthogonalLoop=1;jettySize=auto;html=1;exitX=0.5;exitY=1;exitDx=0;exitDy=0;" parent="1" source="sIhScHPrBFRhKgeZefE7-3" edge="1">
                    <mxGeometry relative="1" as="geometry">
                        <mxPoint x="1060" y="271" as="targetPoint"/>
                    </mxGeometry>
                </mxCell>
                <mxCell id="sIhScHPrBFRhKgeZefE7-8" value="o_clk_600_n" style="edgeLabel;html=1;align=center;verticalAlign=middle;resizable=0;points=[];" parent="sIhScHPrBFRhKgeZefE7-6" vertex="1" connectable="0">
                    <mxGeometry x="-0.1131" y="-1" relative="1" as="geometry">
                        <mxPoint x="20" as="offset"/>
                    </mxGeometry>
                </mxCell>
                <mxCell id="sIhScHPrBFRhKgeZefE7-3" value="OBUFDS" style="triangle;whiteSpace=wrap;html=1;fillColor=#f5f5f5;gradientColor=#b3b3b3;strokeColor=#666666;" parent="1" vertex="1">
                    <mxGeometry x="810" y="185" width="90" height="115" as="geometry"/>
                </mxCell>
                <mxCell id="sIhScHPrBFRhKgeZefE7-9" value="" style="ellipse;whiteSpace=wrap;html=1;aspect=fixed;fillColor=#f5f5f5;gradientColor=#b3b3b3;strokeColor=#666666;" parent="1" vertex="1">
                    <mxGeometry x="851" y="266" width="12" height="12" as="geometry"/>
                </mxCell>
                <mxCell id="sIhScHPrBFRhKgeZefE7-17" style="edgeStyle=orthogonalEdgeStyle;rounded=0;orthogonalLoop=1;jettySize=auto;html=1;" parent="1" edge="1">
                    <mxGeometry relative="1" as="geometry">
                        <mxPoint x="600" y="290" as="targetPoint"/>
                        <mxPoint x="490" y="290" as="sourcePoint"/>
                        <Array as="points">
                            <mxPoint x="550" y="291"/>
                            <mxPoint x="600" y="290"/>
                        </Array>
                    </mxGeometry>
                </mxCell>
                <mxCell id="sIhScHPrBFRhKgeZefE7-19" value="0" style="edgeLabel;html=1;align=center;verticalAlign=middle;resizable=0;points=[];" parent="sIhScHPrBFRhKgeZefE7-17" vertex="1" connectable="0">
                    <mxGeometry x="-0.4027" y="-1" relative="1" as="geometry">
                        <mxPoint x="10" as="offset"/>
                    </mxGeometry>
                </mxCell>
                <mxCell id="sIhScHPrBFRhKgeZefE7-21" style="edgeStyle=orthogonalEdgeStyle;rounded=0;orthogonalLoop=1;jettySize=auto;html=1;exitX=0;exitY=0.25;exitDx=0;exitDy=0;entryX=0;entryY=0.25;entryDx=0;entryDy=0;" parent="1" target="sIhScHPrBFRhKgeZefE7-20" edge="1">
                    <mxGeometry relative="1" as="geometry">
                        <mxPoint x="160" y="435.3333333333335" as="sourcePoint"/>
                    </mxGeometry>
                </mxCell>
                <mxCell id="sIhScHPrBFRhKgeZefE7-23" value="i_clk_600_p" style="edgeLabel;html=1;align=center;verticalAlign=middle;resizable=0;points=[];" parent="sIhScHPrBFRhKgeZefE7-21" vertex="1" connectable="0">
                    <mxGeometry x="-0.3371" y="1" relative="1" as="geometry">
                        <mxPoint as="offset"/>
                    </mxGeometry>
                </mxCell>
                <mxCell id="sIhScHPrBFRhKgeZefE7-22" style="edgeStyle=orthogonalEdgeStyle;rounded=0;orthogonalLoop=1;jettySize=auto;html=1;exitX=0;exitY=0.75;exitDx=0;exitDy=0;entryX=0;entryY=0.75;entryDx=0;entryDy=0;" parent="1" target="sIhScHPrBFRhKgeZefE7-20" edge="1">
                    <mxGeometry relative="1" as="geometry">
                        <mxPoint x="160" y="485.3333333333335" as="sourcePoint"/>
                    </mxGeometry>
                </mxCell>
                <mxCell id="sIhScHPrBFRhKgeZefE7-24" value="i_clk_600_n" style="edgeLabel;html=1;align=center;verticalAlign=middle;resizable=0;points=[];" parent="sIhScHPrBFRhKgeZefE7-22" vertex="1" connectable="0">
                    <mxGeometry x="-0.5582" y="2" relative="1" as="geometry">
                        <mxPoint x="17" as="offset"/>
                    </mxGeometry>
                </mxCell>
                <mxCell id="sIhScHPrBFRhKgeZefE7-26" style="edgeStyle=orthogonalEdgeStyle;rounded=0;orthogonalLoop=1;jettySize=auto;html=1;" parent="1" source="sIhScHPrBFRhKgeZefE7-20" target="sIhScHPrBFRhKgeZefE7-25" edge="1">
                    <mxGeometry relative="1" as="geometry"/>
                </mxCell>
                <mxCell id="sIhScHPrBFRhKgeZefE7-30" style="edgeStyle=orthogonalEdgeStyle;rounded=0;orthogonalLoop=1;jettySize=auto;html=1;entryX=0;entryY=0.5;entryDx=0;entryDy=0;" parent="1" source="sIhScHPrBFRhKgeZefE7-20" target="sIhScHPrBFRhKgeZefE7-29" edge="1">
                    <mxGeometry relative="1" as="geometry"/>
                </mxCell>
                <mxCell id="sIhScHPrBFRhKgeZefE7-34" style="edgeStyle=orthogonalEdgeStyle;rounded=0;orthogonalLoop=1;jettySize=auto;html=1;entryX=0;entryY=0.5;entryDx=0;entryDy=0;" parent="1" source="sIhScHPrBFRhKgeZefE7-20" target="sIhScHPrBFRhKgeZefE7-33" edge="1">
                    <mxGeometry relative="1" as="geometry"/>
                </mxCell>
                <mxCell id="sIhScHPrBFRhKgeZefE7-20" value="IBUFDS" style="triangle;whiteSpace=wrap;html=1;rotation=0;fillColor=#f5f5f5;gradientColor=#b3b3b3;strokeColor=#666666;" parent="1" vertex="1">
                    <mxGeometry x="310" y="410" width="75" height="100" as="geometry"/>
                </mxCell>
                <mxCell id="sIhScHPrBFRhKgeZefE7-27" style="edgeStyle=orthogonalEdgeStyle;rounded=0;orthogonalLoop=1;jettySize=auto;html=1;" parent="1" source="sIhScHPrBFRhKgeZefE7-25" edge="1">
                    <mxGeometry relative="1" as="geometry">
                        <mxPoint x="840" y="460" as="targetPoint"/>
                    </mxGeometry>
                </mxCell>
                <mxCell id="sIhScHPrBFRhKgeZefE7-28" value="internal_phys_clk_600" style="edgeLabel;html=1;align=center;verticalAlign=middle;resizable=0;points=[];" parent="sIhScHPrBFRhKgeZefE7-27" vertex="1" connectable="0">
                    <mxGeometry x="-0.0883" relative="1" as="geometry">
                        <mxPoint as="offset"/>
                    </mxGeometry>
                </mxCell>
                <mxCell id="sIhScHPrBFRhKgeZefE7-25" value="BUFIO" style="triangle;whiteSpace=wrap;html=1;rotation=0;fillColor=#f5f5f5;gradientColor=#b3b3b3;strokeColor=#666666;" parent="1" vertex="1">
                    <mxGeometry x="590" y="410" width="75" height="100" as="geometry"/>
                </mxCell>
                <mxCell id="sIhScHPrBFRhKgeZefE7-31" style="edgeStyle=orthogonalEdgeStyle;rounded=0;orthogonalLoop=1;jettySize=auto;html=1;" parent="1" source="sIhScHPrBFRhKgeZefE7-29" edge="1">
                    <mxGeometry relative="1" as="geometry">
                        <mxPoint x="840" y="590" as="targetPoint"/>
                    </mxGeometry>
                </mxCell>
                <mxCell id="sIhScHPrBFRhKgeZefE7-32" value="internal_phys_clk_200" style="edgeLabel;html=1;align=center;verticalAlign=middle;resizable=0;points=[];" parent="sIhScHPrBFRhKgeZefE7-31" vertex="1" connectable="0">
                    <mxGeometry x="-0.3352" relative="1" as="geometry">
                        <mxPoint x="27" as="offset"/>
                    </mxGeometry>
                </mxCell>
                <mxCell id="sIhScHPrBFRhKgeZefE7-29" value="BUFR&lt;div&gt;/3&lt;/div&gt;" style="triangle;whiteSpace=wrap;html=1;rotation=0;fillColor=#f5f5f5;gradientColor=#b3b3b3;strokeColor=#666666;" parent="1" vertex="1">
                    <mxGeometry x="590" y="540" width="75" height="100" as="geometry"/>
                </mxCell>
                <mxCell id="sIhScHPrBFRhKgeZefE7-35" style="edgeStyle=orthogonalEdgeStyle;rounded=0;orthogonalLoop=1;jettySize=auto;html=1;exitX=1;exitY=0.5;exitDx=0;exitDy=0;" parent="1" source="sIhScHPrBFRhKgeZefE7-33" edge="1">
                    <mxGeometry relative="1" as="geometry">
                        <mxPoint x="840" y="720.3333333333335" as="targetPoint"/>
                    </mxGeometry>
                </mxCell>
                <mxCell id="sIhScHPrBFRhKgeZefE7-36" value="internal_phys_clk_120" style="edgeLabel;html=1;align=center;verticalAlign=middle;resizable=0;points=[];" parent="sIhScHPrBFRhKgeZefE7-35" vertex="1" connectable="0">
                    <mxGeometry x="-0.2512" relative="1" as="geometry">
                        <mxPoint x="19" as="offset"/>
                    </mxGeometry>
                </mxCell>
                <mxCell id="sIhScHPrBFRhKgeZefE7-33" value="BUFR&lt;div&gt;/5&lt;/div&gt;" style="triangle;whiteSpace=wrap;html=1;rotation=0;fillColor=#f5f5f5;gradientColor=#b3b3b3;strokeColor=#666666;" parent="1" vertex="1">
                    <mxGeometry x="590" y="670" width="75" height="100" as="geometry"/>
                </mxCell>
            </root>
        </mxGraphModel>
    </diagram>
</mxfile>